<svg width="139" height="139" xmlns="http://www.w3.org/2000/svg" xmlns:xlink="http://www.w3.org/1999/xlink" overflow="hidden"><defs><clipPath id="clip0"><rect x="427" y="147" width="139" height="139"/></clipPath></defs><g clip-path="url(#clip0)" transform="translate(-427 -147)"><path d="M496.484 176.958C486.462 176.958 476.463 180.375 468.32 187.208 463.419 191.321 459.631 196.324 457.001 201.804 456.635 201.769 456.28 201.69 455.905 201.69 449.359 201.69 444.089 206.961 444.089 213.506L444.089 228.111C444.089 234.656 449.359 239.927 455.905 239.927 456.28 239.927 456.636 239.846 457.001 239.813 457.472 240.789 457.959 241.758 458.508 242.71 460.655 246.543 466.392 243.262 464.177 239.468 455.107 223.759 458.62 203.853 472.514 192.194 486.41 180.534 506.593 180.534 520.488 192.194 534.383 203.853 537.896 223.759 528.826 239.468L528.728 239.631 528.663 239.793C528.663 239.793 524.258 249.538 515.608 249.538L504.66 249.44C503.633 247.94 501.989 246.896 500.027 246.896L492.969 246.896C489.805 246.896 487.259 249.45 487.259 252.615 487.259 254.567 488.498 256.049 491.332 256.049L515.608 256.051C528.588 256.051 534.202 243.309 534.458 242.719L534.458 242.684C535.002 241.74 535.481 240.771 535.949 239.804 536.33 239.838 536.702 239.918 537.095 239.918 543.641 239.918 548.911 234.647 548.911 228.101L548.911 213.497C548.911 206.951 543.641 201.68 537.095 201.68 536.716 201.68 536.36 201.743 535.991 201.794 533.367 196.315 529.59 191.311 524.688 187.198 516.546 180.366 506.505 176.949 496.482 176.949ZM482.242 197.719C479.699 197.553 477.375 198.091 475.344 200.229 469.93 205.929 466.585 213.688 466.585 221.95 466.585 228.765 468.863 236.402 472.7 236.681 478.166 237.078 486.792 233.489 496.501 233.489 506.79 233.489 515.87 237.516 521.254 236.563 524.518 235.986 526.426 228.185 526.426 221.95 526.426 213.688 523.073 205.929 517.658 200.229 512.244 194.529 504.763 200.229 496.501 200.229 491.337 200.229 486.482 197.997 482.242 197.719ZM481.03 211.767C484.048 211.768 486.495 214.215 486.496 217.234 486.495 220.252 484.048 222.699 481.03 222.7 478.011 222.699 475.565 220.252 475.564 217.234 475.565 214.215 478.011 211.768 481.03 211.767ZM511.973 211.767C514.992 211.768 517.438 214.215 517.44 217.234 517.438 220.252 514.992 222.699 511.973 222.7 508.955 222.699 506.508 220.252 506.507 217.234 506.508 214.215 508.955 211.768 511.973 211.767Z" fill="#D9D9D9" fill-rule="evenodd"/></g></svg>